<svg height="54" viewBox="0 0 35 54" width="35" xmlns="http://www.w3.org/2000/svg"><path d="m0 0h35v54h-35z" fill="none"/><path d="m34.5 33.5a17 17 0 1 1 -17-17c.0529 0 .1038.0074.1565.0079a1.973 1.973 0 0 1 -.16 3.94v.0021a13.1314 13.1314 0 1 0 2.233.2046 3.1156 3.1156 0 0 0 .3571-3.9376 16.9887 16.9887 0 0 1 14.4134 16.783zm-8.948 0a8.052 8.052 0 1 1 -8.052-8.052l.0273.0014a1.9231 1.9231 0 0 0 -.0371-3.8459v-.003a11.9252 11.9252 0 1 0 2.5932.2888 3.0408 3.0408 0 0 1 -.4653 3.8508 8.06 8.06 0 0 1 5.9339 7.7599zm-8.0657-2.9006v-.0013a1.9994 1.9994 0 0 0 .0515-3.9981c-.0127 0-.025-.0019-.0378-.0019a6.9114 6.9114 0 1 0 2.855.6215l-.0616-.0277a3.1126 3.1126 0 0 1 .3453 1.4044 3.1511 3.1511 0 0 1 -1.3844 2.6078 2.8881 2.8881 0 1 1 -1.768-.6046z" fill="#f5f5f7"/></svg>