<svg enable-background="new 0 0 25 54" height="54" viewBox="0 0 25 54" width="25" xmlns="http://www.w3.org/2000/svg"><path d="m0 0h25v54h-25z" fill="none"/><path d="m24 20.643v-.2412c0-2.4601-1.3898-4.5931-3.4256-5.6643-.6846-.5646-1.0228-1.2895-1.1319-1.5546-.2243-.5449-.3269-1.1603-.3269-1.1603s-.3846-2.9103-.4615-3.3911-.3862-.7322-.3862-.7322c-.3317-.2806-.6779-.3959-1.2146-.5449-.9633-.2484-.9762-.2035-.9762-.2035s-1.3461-.2333-4.09-.2333-4.09.2333-4.09.2333-.0127-.0449-.976.2036c-.5367.149-.8828.2643-1.2146.5449 0 0-.3093.2515-.3862.7322-.077.4808-.4615 3.3911-.4615 3.3911s-.1026.6154-.327 1.1603c-.1109.2694-.4565 1.0147-1.1648 1.5828-2.0044 1.081-3.367 3.199-3.367 5.636v16.05c0 2.3587 1.2796 4.4139 3.179 5.524l.0003.0151c.8525.577 1.2314 1.4493 1.3525 1.7437.2244.5449.327 1.1602.327 1.1602s.3846 2.9103.4615 3.3911.3862.7323.3862.7323c.3317.2806.6779.3959 1.2146.5449.9633.2485.9761.2037.9761.2037s1.3461.2332 4.09.2332 4.09-.2333 4.09-.2333.0128.0449.9761-.2037c.5367-.1489.8829-.2643 1.2146-.5449 0 0 .3093-.2515.3862-.7323.077-.4808.4615-3.3911.4615-3.3911s.1026-.6154.3269-1.1602c.1211-.294.4995-1.1645 1.3499-1.7413 1.9154-1.1059 3.2076-3.1707 3.2076-5.5414v-10.9588h.9996v-4.85zm-8.6725-13.4865c.6988.0543 1.2581.1907 1.2493.3048s-.5825.1625-1.2813.1083c-.6988-.0543-1.2581-.1907-1.2493-.3048s.5825-.1626 1.2813-.1083zm-.0184.9132c.7009 0 1.2691.2389 1.2691.5335 0 .2947-.5682.5336-1.2691.5336s-1.2691-.2389-1.2691-.5336c0-.2946.5682-.5335 1.2691-.5335zm0 1.8617c.7009 0 1.2691.371 1.2691.8286 0 .4577-.5682.8287-1.2691.8287s-1.2691-.371-1.2691-.8287.5682-.8286 1.2691-.8286zm-3.3216-2.5649c.7009 0 1.2691.1912 1.2691.4271 0 .2358-.5682.4271-1.2691.4271s-1.269-.1912-1.269-.4271.5682-.4271 1.269-.4271zm1.3732 4.7444c0 .5391-.5904.9762-1.3186.9762-.7283 0-1.3186-.4371-1.3186-.9762 0-.5392.5903-.9763 1.3186-.9763.7282 0 1.3186.4371 1.3186.9763zm-1.3732-3.3206c.7009 0 1.2691.3184 1.2691.7112s-.5682.7112-1.2691.7112-1.269-.3184-1.269-.7112.5682-.7112 1.269-.7112zm-3.2046-1.6338c.6988-.0543 1.2725-.0058 1.2813.1083.0089.114-.5505.2505-1.2493.3048s-1.2724.0058-1.2813-.1083.5504-.2505 1.2493-.3048zm-.035.9132c.7009 0 1.2691.2389 1.2691.5335 0 .2947-.5682.5336-1.2691.5336s-1.2691-.2389-1.2691-.5336c0-.2946.5681-.5335 1.2691-.5335zm0 1.8617c.7009 0 1.2691.371 1.2691.8286 0 .4577-.5682.8287-1.2691.8287s-1.2691-.371-1.2691-.8287.5681-.8286 1.2691-.8286zm0 37.8494c.7009 0 1.2691.2389 1.2691.5335 0 .2947-.5682.5336-1.2691.5336s-1.2691-.2389-1.2691-.5336c0-.2946.5681-.5335 1.2691-.5335zm-1.2691-1.6233c0-.4576.5682-.8286 1.2691-.8286s1.2691.371 1.2691.8286c0 .4577-.5682.8287-1.2691.8287-.701-.0001-1.2691-.371-1.2691-.8287zm1.3041 3.6035c-.6989-.0543-1.2581-.1907-1.2493-.3048s.5825-.1625 1.2813-.1083 1.2581.1907 1.2493.3048-.5825.1626-1.2813.1083zm3.2046-.21c-.7009 0-1.269-.1912-1.269-.4271 0-.2358.5682-.4271 1.269-.4271.7009 0 1.2691.1912 1.2691.4271.0001.236-.5681.4271-1.2691.4271zm0-1.4238c-.7009 0-1.269-.3185-1.269-.7112 0-.3928.5682-.7113 1.269-.7113.7009 0 1.2691.3185 1.2691.7113.0001.3927-.5681.7112-1.2691.7112zm.0546-2.3443c-.7283 0-1.3186-.4371-1.3186-.9763 0-.5391.5903-.9762 1.3186-.9762.7282 0 1.3186.4371 1.3186.9762 0 .5392-.5904.9763-1.3186.9763zm3.2854 3.9781c-.6988.0543-1.2725.0058-1.2813-.1083s.5505-.2505 1.2493-.3048 1.2725-.0058 1.2813.1083-.5506.2505-1.2493.3048zm-.0184-.9132c-.7009 0-1.2691-.2389-1.2691-.5336 0-.2946.5682-.5335 1.2691-.5335s1.2691.2389 1.2691.5335c0 .2947-.5683.5336-1.2691.5336zm0-1.8617c-.7009 0-1.2691-.371-1.2691-.8287 0-.4576.5682-.8286 1.2691-.8286s1.2691.371 1.2691.8286c0 .4578-.5683.8287-1.2691.8287zm7.6909-26.3431h-.0004v4.85h.0004v10.9588c0 2.9775-2.4224 5.4-5.4 5.4h-11.2c-2.9775 0-5.4-2.4224-5.4-5.4v-16.05c0-2.9776 2.4224-5.4 5.4-5.4h11.2c2.9776 0 5.4 2.4224 5.4 5.4z" fill="#f5f5f7"/></svg>