<svg enable-background="new 0 0 25 54" height="54" viewBox="0 0 25 54" width="25" xmlns="http://www.w3.org/2000/svg"><path d="m0 0h25v54h-25z" fill="none"/><path d="m11.7706 48.1008.0005.4273c.0005.396-.2472.9283-.5505 1.1829l-.3395.285c-.6152-.0037-1.0943-.0127-1.5052-.0263.0515-.3703.2636-.8008.5287-1.0234l1.3135-1.1025c.3034-.2547.552-.139.5525.257zm-1.8161.1444 1.2742-1.1227c.2971-.2618.53-.7998.5176-1.1956l-.0135-.4274c-.0125-.3958-.2657-.5054-.5629-.2437l-1.2742 1.1227c-.2971.2618-.53.7998-.5176 1.1956l.0135.4274c.0125.3958.2658.5055.5629.2437zm1.8061-5.3564h-.7822l-1.0737.9012c-.3033.2546-.551.7869-.5505 1.1829l.0005.4272c.0005.3961.2491.5117.5524.2571l1.3135-1.1026c.3033-.2546.551-.7869.5505-1.1829l-.0005-.4272c0-.0227-.0084-.0349-.01-.0557zm-1.8061.2001.2271-.2001h-.7807c.0323.3532.2699.4501.5536.2001zm-1.0212-.2001h-.7358l.1996.1675c.2754.2312.4958.1444.5362-.1675zm-1.8587 1.6328 1.2742 1.1226c.2972.2618.5505.1522.5629-.2437l.0134-.4274c.0125-.3958-.2204-.9338-.5175-1.1956l-1.0087-.8887h-.8263c-.0002.0039-.002.0057-.0021.0097l-.0134.4275c-.0125.3958.2204.9338.5175 1.1956zm.0115.7212c-.3033-.2546-.5519-.1389-.5525.2571l-.0005.4273c-.0005.396.2472.9283.5505 1.1829l1.3135 1.1026c.3033.2546.5519.1389.5524-.2571l.0006-.4273c.0005-.396-.2472-.9283-.5505-1.1829zm.0473 2.5683c-.2971-.2618-.5504-.1522-.5629.2437l-.0134.4274c-.0125.3958.2204.9338.5175 1.1956l.1658.1461c.6123.0569 1.0865.0986 1.6657.1269-.0456-.3673-.2432-.7921-.4985-1.017zm-1.5574.0326-.4005.3361.0127.1056c.0766.5608.261.9216.6218 1.1588.1871-.2726.3193-.629.3189-.9161l-.0005-.4273c-.0005-.396-.2491-.5117-.5524-.2571zm.5281-1.9168-.0135-.4274c-.0125-.3958-.2657-.5054-.5629-.2437l-.6364.5607.2087 1.7347.4866-.4287c.2971-.2618.53-.7998.5175-1.1956zm.0117-3.0524c-.2313-.0102-.4591-.0323-.6834-.0665l-.9213.7733c.1218.2971.1924.6111.2219.9183l.0836.6946.762-.6396c.3033-.2546.551-.7869.5505-1.1829l-.0005-.4272c-.0002-.0285-.0102-.0445-.0128-.07zm-2.3681-.5662c-.0025.0361-.0128.0754-.0117.1096l.0062.197c.1854.1415.3503.2811.4631.4232.0209.0263.0344.0561.0538.0831.0183-.0135.0345-.0158.0533-.0323l.4702-.4143c-.3582-.0935-.704-.2153-1.0349-.3663zm-1.3708-.8451c.2301.3076.5756.5757.9196.8245-.0057-.0736-.0245-.152-.0436-.2299-.3086-.1748-.602-.3728-.876-.5946zm18.2977.8414c.3458-.2495.6936-.5187.9291-.827-.2783.2236-.5753.4245-.8889.5997-.0177.077-.035.1543-.0402.2273zm-1.4502.3682.457.3836c.0248.0208.046.0242.0699.0401.0139-.0189.0231-.0399.0378-.0584.1091-.1376.267-.2727.4449-.4096l.0003-.2565c0-.0162-.0063-.0351-.0071-.0517-.3208.1449-.6562.2616-1.0028.3525zm-1.3647.2029c-.0005.009-.0046.0135-.0049.0228l-.0134.4274c-.0125.3958.2205.9338.5176 1.1956l.8136.7168.0888-.7387c.0292-.3041.0988-.6147.2181-.9093l-.8915-.7855c-.2388.0372-.4815.0609-.7283.0709zm-.0417 2.6241-.0006.4273c-.0005.396.2472.9283.5505 1.1829l.5264.4419.2042-1.698-.7281-.6111c-.3033-.2547-.5519-.139-.5524.257zm.0953 2.5159-.0135.4274c-.0089.2811.1093.6307.2831.9055.3336-.2261.5533-.5521.6232-1.0632l.0242-.2012-.3542-.3121c-.2971-.2618-.5504-.1522-.5628.2436zm-1.0529-.172-1.3135 1.1025c-.2678.2249-.4818.6622-.5303 1.035.6737-.02 1.2273-.0621 1.699-.1466l.1473-.1237c.3033-.2546.551-.7869.5505-1.1829l-.0006-.4273c-.0006-.3959-.2492-.5116-.5524-.257zm-1.2637.4015 1.2742-1.1227c.2972-.2618.53-.7998.5176-1.1956l-.0134-.4274c-.0125-.3958-.2658-.5054-.5629-.2437l-1.2742 1.1227c-.2971.2618-.53.7998-.5176 1.1956l.0135.4274c.0124.3958.2657.5055.5628.2437zm1.806-5.3564h-.7822l-1.0737.9012c-.3033.2546-.551.7869-.5505 1.1829l.0005.4272c.0005.3961.2491.5117.5524.2571l1.3135-1.1026c.3033-.2546.551-.7869.5505-1.1829l-.0006-.4272c.0001-.0227-.0082-.0349-.0099-.0557zm-1.806.2001.2271-.2001h-.7807c.0322.3532.2698.4501.5536.2001zm-1.0212-.2001h-.7358l.1996.1675c.2753.2312.4957.1444.5362-.1675zm-1.8587 1.6328 1.2742 1.1226c.2971.2618.5504.1522.5629-.2437l.0135-.4274c.0125-.3958-.2205-.9338-.5176-1.1956l-1.0087-.8887h-.8264c-.0002.0039-.002.0057-.0021.0097l-.0134.4274c-.0124.3959.2205.9339.5176 1.1957zm.0115.7212c-.3033-.2546-.5519-.1389-.5524.2571l-.0006.4273c-.0005.396.2472.9283.5505 1.1829l1.3135 1.1026c.3033.2546.5519.1389.5524-.2571l.0006-.4273c.0005-.396-.2472-.9283-.5505-1.1829zm.0473 2.5683c-.2971-.2618-.5505-.1522-.5629.2437l-.0134.4274c-.0125.3958.2204.9338.5175 1.1956l.3655.3221c.5441.0005 1.0323-.001 1.4704-.0079-.0344-.376-.238-.8248-.5029-1.0582zm-1.8944-40.897c-.6151.0037-1.0943.0127-1.5052.0263.0515.3703.2636.8009.5287 1.0234l1.3135 1.1026c.3033.2546.5519.1389.5524-.2571l.0005-.4273c.0005-.396-.2472-.9283-.5505-1.1829zm.2887 4.7401c.2971.2618.5504.1521.5629-.2437l.0135-.4274c.0125-.3958-.2205-.9338-.5176-1.1956l-1.2742-1.1226c-.2971-.2618-.5504-.1522-.5628.2436l-.0135.4274c-.0125.3958.2205.9338.5176 1.1956zm-1.2627-.4014c-.3033-.2546-.5519-.1389-.5524.2571l-.0005.4273c-.0005.396.2471.9283.5505 1.1829l1.0873.9127h.7665c.0023-.0247.0121-.0399.0121-.0672l.0005-.4273c.0005-.396-.2472-.9283-.5505-1.1829zm.0473 2.5683c-.2872-.2531-.5287-.1526-.556.2116h.7962zm-1.5574.0326-.2133.179h.7516c-.0359-.3222-.2593-.4131-.5383-.179zm-.0483-2.5879-1.2742 1.1227c-.2971.2618-.53.7998-.5175 1.1956l.0134.4274c.0002.0087.004.0128.0045.0212h.8109l1.0217-.9002c.2971-.2618.53-.7998.5175-1.1956l-.0134-.4274c-.0124-.3958-.2657-.5055-.5629-.2437zm.0483-2.5683-1.3135 1.1025c-.3033.2546-.551.7869-.5505 1.1829l.0005.4273c.0005.396.2491.5117.5525.2571l1.3135-1.1026c.3033-.2546.551-.7869.5505-1.1829l-.0006-.4273c-.0005-.396-.2491-.5116-.5524-.257zm-1.2637.4014 1.2742-1.1226c.2552-.2249.4529-.6497.4985-1.017-.5792.0284-1.0534.07-1.6657.1269l-.1658.146c-.2971.2618-.53.7998-.5175 1.1957l.0134.4274c.0125.3957.2658.5054.5629.2436zm-1.9451-.4743-.0127.1056.4004.3361c.3033.2546.5519.1389.5524-.2571l.0006-.4272c.0004-.287-.1318-.6435-.3189-.9161-.3608.2372-.5452.5979-.6218 1.1587zm.9023 2.7859.0135-.4274c.0125-.3958-.2205-.9338-.5176-1.1956l-.4865-.4287-.2086 1.7347.6364.5607c.2971.2618.5504.1521.5628-.2437zm-1.274.3052-.0836.6947c-.0295.3073-.1002.6212-.2219.9183l.9329.783c.2199-.033.443-.0545.6697-.0646.0034-.0292.0147-.0484.0148-.0817l.0005-.4273c.0005-.396-.2472-.9283-.5505-1.1829zm-.0239 2.5286-.4803-.4232c-.0187-.0165-.035-.0187-.0533-.0322-.0194.027-.033.0568-.0538.0831-.1127.1422-.2777.2817-.4631.4232l-.0062.197c-.0012.0376.0098.0806.0129.1205.3336-.1522.6824-.2747 1.0438-.3684zm-2.4466 1.2352v.002c.2817-.231.5854-.4354.9044-.6161.0209-.0825.04-.1652.046-.2429-.3569.2579-.7213.5345-.9504.857zm19.2952-.0075c-.2346-.326-.6053-.6058-.9667-.8666.0055.0771.0231.1588.0425.2402.3265.1825.6362.3915.9242.6264zm-1.8521-1.6c-.0147-.0185-.0239-.0396-.0378-.0585-.0239.0159-.0452.0194-.0699.0402l-.4674.3924c.3498.0911.6881.2084 1.0119.3545.0012-.0202.0085-.0429.0085-.0625l-.0003-.2565c-.178-.1369-.3359-.272-.445-.4096zm-1.9478-.2879.0134.4274c.0004.0141.0063.0211.0073.0344.2421.0099.4803.033.7147.069l.9026-.7953c-.1193-.2946-.1889-.6052-.2181-.9093l-.0889-.7388-.8135.7169c-.297.2619-.5299.7999-.5175 1.1957zm.529-1.9168.7281-.6112-.2042-1.698-.5264.4419c-.3033.2546-.551.7869-.5505 1.1829l.0006.4273c.0005.396.2491.5117.5524.2571zm.1057-2.5293.3542-.3121-.0242-.2012c-.0699-.5112-.2896-.8372-.6232-1.0633-.1738.2747-.2921.6244-.2832.9056l.0135.4274c.0125.3957.2658.5054.5629.2436zm-1.7605-2.0626c-.4717-.0845-1.0253-.1267-1.699-.1467.0485.3729.2625.8102.5303 1.035l1.3135 1.1026c.3033.2546.5519.1389.5524-.2571l.0006-.4273c.0005-.396-.2472-.9283-.5505-1.1829zm.0965 4.5788c.2971.2618.5504.1521.5629-.2437l.0134-.4274c.0125-.3958-.2204-.9338-.5176-1.1956l-1.2742-1.1227c-.2971-.2618-.5504-.1522-.5629.2437l-.0135.4274c-.0125.3958.2205.9338.5176 1.1956zm-1.2628-.4014c-.3033-.2546-.5519-.1389-.5524.2571l-.0005.4273c-.0005.396.2472.9283.5505 1.1829l1.0873.9127h.7665c.0023-.0247.0121-.0399.0121-.0672l.0006-.4273c.0005-.396-.2472-.9283-.5505-1.1829zm.0474 2.5683c-.2872-.2531-.5287-.1526-.556.2116h.7962zm-1.5575.0326-.2133.179h.7516c-.0359-.3222-.2593-.4131-.5383-.179zm-.0482-2.5879-1.2742 1.1227c-.2971.2618-.53.7998-.5175 1.1956l.0134.4274c.0002.0087.004.0128.0045.0212h.8109l1.0217-.9002c.2971-.2618.53-.7998.5176-1.1956l-.0135-.4274c-.0125-.3958-.2658-.5055-.5629-.2437zm.0482-2.5683-1.3135 1.1025c-.3033.2546-.551.7869-.5505 1.1829l.0006.4273c.0005.396.2491.5117.5524.2571l1.3135-1.1026c.3033-.2546.551-.7869.5505-1.1829l-.0006-.4273c-.0004-.396-.249-.5116-.5524-.257zm-1.2636.4014 1.2742-1.1226c.2649-.2334.4685-.6823.5029-1.0582-.438-.0069-.9261-.0085-1.4703-.0079l-.3657.3221c-.2971.2618-.53.7998-.5175 1.1956l.0134.4274c.0126.3957.2659.5054.563.2436zm12.224 16.4312h-.9996v10.9588c0 2.0184-.9365 3.8159-2.3963 4.9888-.2783.2236-.5753.4245-.8889.5997-.1581.0884-.3214.168-.4874.2429-.321.1449-.6564.2616-1.0029.3525-.2083.0546-.4204.0986-.6364.1321-.2388.0371-.4815.0609-.7283.0708-.0869.0035-.1721.0131-.2598.0131h-11.0274-.1726c-.0959 0-.1892-.0102-.2841-.0143-.2313-.0102-.4591-.0323-.6834-.0665-.2206-.0336-.4372-.0779-.6498-.1334-.3582-.0934-.704-.2153-1.0349-.3663-.1688-.0771-.3343-.1595-.4949-.2505-.3086-.1748-.602-.3727-.876-.5945-1.449-1.1734-2.3769-2.9647-2.3769-4.9744v-16.0562c0-1.9958.9142-3.7776 2.3461-4.9513.2817-.231.5854-.4354.9044-.6161.1617-.0917.3284-.175.4985-.2526.3336-.1522.6824-.2747 1.0438-.3683.2131-.0552.4302-.0993.6513-.1326.2199-.033.443-.0545.6697-.0646.0955-.0042.1895-.0145.2862-.0145h.1751 11.0249c.0885 0 .1746.0097.2622.0132.2421.0099.4803.033.7147.069.2162.0332.4286.0768.6371.1311.3498.0911.6881.2084 1.0119.3545.1674.0755.3318.1559.4912.245.3265.1826.6362.3915.9242.6264 1.4388 1.1737 2.3587 2.9593 2.3587 4.9608v.2412h.9996zm-1.9996 0h-.0004v-4.8561h.0004v-.2412c0-1.7202-.8113-3.2515-2.0682-4.2411-.3303-.26-.6915-.481-1.0771-.6592-.4966-.2294-1.0323-.3864-1.596-.4553-.2164-.0265-.4352-.0444-.6586-.0444h-11.2001c-.2357 0-.4662.0204-.694.0498-.5576.072-1.0874.2294-1.5786.4586-.3788.1768-.7341.3947-1.0591.6506-1.257.9895-2.0683 2.5208-2.0683 4.2409v16.0561c0 1.7133.8046 3.2396 2.0529 4.2296.3272.2595.6854.4797 1.0674.6586.4906.2297 1.0199.3877 1.5769.4606.2306.0302.4641.0511.7028.0511h11.2c.2266 0 .4484-.0186.6677-.0458.5631-.0699 1.0982-.2274 1.5941-.4574.3888-.1804.753-.4037 1.0853-.6672 1.2483-.9899 2.0529-2.5162 2.0529-4.2294z" fill="#f5f5f7"/></svg>