<svg height="54" viewBox="0 0 63 54" width="63" xmlns="http://www.w3.org/2000/svg"><path d="m0 0h63v54h-63z" fill="none"/><g fill="#f5f5f7"><path d="m25.125 9.2353h.625a1.2426 1.2426 0 0 1 1.25 1.2353v19.7647a5 5 0 0 0 10 0v-19.7647c0-.6823 0-1.2353 1.25-1.2353h.625a.6177.6177 0 1 0 0-1.2353h-13.75a.6177.6177 0 1 0 0 1.2353zm6.875 6.1765a1.2354 1.2354 0 1 1 -1.25 1.2353 1.2426 1.2426 0 0 1 1.25-1.2353zm0 4.9411a1.2354 1.2354 0 1 1 -1.25 1.2353 1.2427 1.2427 0 0 1 1.25-1.2353zm0 4.9412a1.2354 1.2354 0 1 1 -1.25 1.2353 1.2427 1.2427 0 0 1 1.25-1.2353zm6.875 23.4706h-.625c-1.25 0-1.25-.553-1.25-1.2353v-13.6264a6.2369 6.2369 0 0 1 -10 0v13.6264a1.2426 1.2426 0 0 1 -1.25 1.2353h-.625a.6177.6177 0 1 0 0 1.2353h13.75a.6177.6177 0 1 0 0-1.2353z"/><path d="m62 22.9693v-2.2437a3.8814 3.8814 0 0 0 -1.881-3.3194l.0041-.0155a3.7986 3.7986 0 0 1 -2.2464-2.9779l-.4367-3.7858c-.1363-1.0386-.3066-1.1919-1.9072-1.5325a41.311 41.311 0 0 0 -4.5491-.3121 41.311 41.311 0 0 0 -4.5491.3121c-1.6006.3406-1.7709.4939-1.9071 1.5325l-.437 3.7858a3.7559 3.7559 0 0 1 -2.2132 2.9779l.0034.0159a3.8812 3.8812 0 0 0 -1.8807 3.319v17.2078a3.88 3.88 0 0 0 1.9348 3.3485l-.0025.0153a3.8227 3.8227 0 0 1 2.1577 3.0728l.437 3.7857c.1362 1.0387.3065 1.192 1.9071 1.5325a41.298 41.298 0 0 0 4.5493.3118 41.298 41.298 0 0 0 4.5491-.3122c1.6006-.3405 1.7709-.4938 1.9072-1.5325l.437-3.7857a3.9509 3.9509 0 0 1 2.2464-3.0838l-.0093-.03a3.881 3.881 0 0 0 1.8862-3.3224v-10.9641h1v-4zm-1 4v10.9641a2.8967 2.8967 0 0 1 -2.896 2.8966h-14.2079a2.8967 2.8967 0 0 1 -2.8961-2.8966v-17.2078a2.9364 2.9364 0 0 1 2.8961-2.8956h14.2079a2.9363 2.9363 0 0 1 2.896 2.8956zm-4.6236 21.4548a6.12 6.12 0 0 1 -1.011.2769 40.35 40.35 0 0 1 -4.382.299 40.3388 40.3388 0 0 1 -4.3819-.299 6.1182 6.1182 0 0 1 -1.0111-.2769 2.55 2.55 0 0 1 -.07-.3835l-.4346-3.7628a4.7013 4.7013 0 0 0 -.983-2.4483h13.8077a4.5818 4.5818 0 0 0 -1.0272 2.4254l-.4352 3.77a2.6907 2.6907 0 0 1 -.0717.3992zm-10.7859-38.0658a6.1112 6.1112 0 0 1 1.0111-.2769 40.2527 40.2527 0 0 1 4.3818-.299 40.35 40.35 0 0 1 4.382.299 6.12 6.12 0 0 1 1.011.2769 2.52 2.52 0 0 1 .07.3834l.4347 3.7629a4.3251 4.3251 0 0 0 .9746 2.3249h-13.7264a4.3287 4.3287 0 0 0 .9543-2.302l.4351-3.77a2.6728 2.6728 0 0 1 .0718-.3992z"/><path d="m11.7706 48.1008.0006.4273a1.7562 1.7562 0 0 1 -.55 1.1829l-.34.2849c-.6151-.0037-1.0943-.0127-1.5052-.0263a1.7642 1.7642 0 0 1 .5287-1.0233l1.3135-1.1026c.3033-.2546.5518-.1389.5524.2571zm-1.8161.1444 1.2742-1.1227a1.7408 1.7408 0 0 0 .5176-1.1956l-.0135-.4269c-.0125-.3958-.2658-.5055-.5629-.2437l-1.2741 1.1222a1.74 1.74 0 0 0 -.5176 1.1956l.0135.4274c.0124.3958.2657.5055.5628.2437zm1.8061-5.3564h-.7823l-1.0736.9012a1.7553 1.7553 0 0 0 -.55 1.1829v.4273c.0006.396.2492.5117.5525.2571l1.3135-1.1026a1.7562 1.7562 0 0 0 .55-1.1829l-.0006-.4273a.5588.5588 0 0 0 -.0095-.0557zm-1.8061.2.2271-.2h-.7807c.0323.3532.2699.4501.5536.2001zm-1.0212-.2h-.7358l.2.1676c.275.2311.4954.1443.5358-.1676zm-1.8587 1.6328 1.2742 1.1226c.2972.2618.55.1521.5629-.2437l.0135-.4273a1.7405 1.7405 0 0 0 -.5175-1.1957l-1.0088-.8887h-.8263l-.002.01-.0135.4274a1.74 1.74 0 0 0 .5175 1.1954zm.0115.7212c-.3033-.2547-.5519-.139-.5525.257v.4273a1.7557 1.7557 0 0 0 .55 1.1829l1.3135 1.1026c.3033.2546.5519.1389.5524-.2571l.0006-.4273a1.7562 1.7562 0 0 0 -.5501-1.1829zm.0473 2.5683c-.2971-.2618-.55-.1521-.5628.2437l-.0135.4274a1.74 1.74 0 0 0 .5175 1.1956l.1658.1461c.6123.0569 1.0865.0985 1.6657.1269a1.75 1.75 0 0 0 -.4984-1.017zm-1.5574.0326-.4.3361.0127.1056a1.4951 1.4951 0 0 0 .6213 1.1588 1.7552 1.7552 0 0 0 .3189-.9161v-.4273c-.001-.396-.2496-.5117-.5529-.2571zm.5281-1.9168-.0135-.4269c-.0124-.3958-.2657-.5055-.5628-.2437l-.6364.5608.2086 1.7341.4865-.4287a1.74 1.74 0 0 0 .5176-1.1956zm.0117-3.0524a6.4278 6.4278 0 0 1 -.6834-.0665l-.9213.7733a3.2474 3.2474 0 0 1 .2219.9187l.0836.6946.762-.64a1.7561 1.7561 0 0 0 .55-1.1829v-.4273a.5634.5634 0 0 0 -.0128-.0699zm-2.3681-.5663c-.0025.0361-.0128.0755-.0117.11l.0062.1969a2.6571 2.6571 0 0 1 .4631.4232c.0208.0264.0344.0561.0538.0832a.583.583 0 0 0 .0533-.0323l.47-.4143a6.3477 6.3477 0 0 1 -1.0347-.3667zm-1.3708-.845a4.2624 4.2624 0 0 0 .92.8245 1.4772 1.4772 0 0 0 -.0435-.23 6.4177 6.4177 0 0 1 -.8765-.5945zm18.2977.8414a4.4193 4.4193 0 0 0 .9291-.8269 6.4133 6.4133 0 0 1 -.8889.6 1.5275 1.5275 0 0 0 -.0402.2269zm-1.45.3682.457.3836a.5828.5828 0 0 0 .07.04c.014-.0189.0232-.04.0379-.0585a2.59 2.59 0 0 1 .4449-.41v-.2564c0-.0162-.0063-.0351-.007-.0517a6.35 6.35 0 0 1 -1.003.353zm-1.3647.2029c0 .009-.0045.0135-.0048.0228l-.0135.4274a1.7409 1.7409 0 0 0 .5176 1.1957l.8136.7168.0888-.7387a3.26 3.26 0 0 1 .2184-.9097l-.8915-.7855a6.4374 6.4374 0 0 1 -.7285.0712zm-.0419 2.6243-.0006.4273a1.7562 1.7562 0 0 0 .55 1.1829l.5264.4419.2043-1.698-.7282-.6111c-.3028-.2549-.5514-.1392-.5519.257zm.0953 2.5159-.0135.4274a1.7329 1.7329 0 0 0 .2831.9056 1.4267 1.4267 0 0 0 .6233-1.0633l.0242-.2012-.3543-.3121c-.2971-.2623-.5504-.1523-.5628.2434zm-1.0529-.172-1.3136 1.1026a1.7646 1.7646 0 0 0 -.53 1.035 11.8032 11.8032 0 0 0 1.699-.1466l.1474-.1237a1.7562 1.7562 0 0 0 .55-1.1829l-.0006-.4273c-.0004-.3962-.249-.5119-.5526-.2573zm-1.2637.4015 1.2741-1.1227a1.74 1.74 0 0 0 .5176-1.1956l-.0134-.4271c-.0125-.3958-.2658-.5055-.5629-.2437l-1.2742 1.1227a1.7408 1.7408 0 0 0 -.5176 1.1956l.0135.4274c.0125.3953.2662.505.5629.2432zm1.806-5.3564h-.7822l-1.0737.9012a1.7562 1.7562 0 0 0 -.55 1.1829l.0006.4273c.0005.396.2491.5117.5524.2571l1.3136-1.1026a1.7562 1.7562 0 0 0 .55-1.1829l-.0006-.4273a.5584.5584 0 0 0 -.0101-.0559zm-1.806.2.2271-.2h-.7807c.0322.353.2698.4499.5536.1999zm-1.0212-.2h-.7355l.1995.1676c.2751.2309.4955.1441.536-.1678zm-1.8587 1.6328 1.2742 1.1226c.2971.2618.55.1521.5629-.2437l.0135-.4273a1.7411 1.7411 0 0 0 -.5176-1.1957l-1.0087-.8887h-.8263l-.0021.01-.0134.4274a1.74 1.74 0 0 0 .5175 1.1952zm.0115.7212c-.3034-.2547-.552-.139-.5525.257l-.0006.4273a1.7562 1.7562 0 0 0 .55 1.1829l1.3135 1.1026c.3034.2546.552.1389.5525-.2571l.0006-.4273a1.7562 1.7562 0 0 0 -.55-1.1829zm.0473 2.5683c-.2971-.2618-.55-.1521-.5629.2437l-.0134.4274a1.74 1.74 0 0 0 .5175 1.1956l.3655.322c.5441.0005 1.0324-.001 1.47-.0079a1.7484 1.7484 0 0 0 -.5029-1.0582zm-1.8944-41.0413c-.6151.0037-1.0943.0127-1.5052.0263a1.7639 1.7639 0 0 0 .5287 1.0237l1.3135 1.1026c.3033.2546.5519.139.5524-.257l.0006-.4273a1.7566 1.7566 0 0 0 -.55-1.183zm.2887 4.74c.2971.2618.55.1521.5629-.2437l.0135-.4273a1.7409 1.7409 0 0 0 -.5176-1.1957l-1.2742-1.1223c-.2971-.2618-.55-.1522-.5628.2436l-.0135.4274a1.74 1.74 0 0 0 .5176 1.1957zm-1.2627-.4015c-.3033-.2545-.5519-.1389-.5525.2571v.4273a1.7557 1.7557 0 0 0 .55 1.183l1.0873.9126h.7665a.5633.5633 0 0 0 .0121-.0672l.0006-.4273a1.7562 1.7562 0 0 0 -.55-1.1829zm.0473 2.5684c-.2872-.2531-.5287-.1526-.556.2116h.7962zm-1.5574.0331-.2133.179h.7516c-.0354-.3224-.2593-.4133-.5383-.179zm-.0483-2.5879-1.2742 1.1225a1.74 1.74 0 0 0 -.5175 1.1954l.0135.4274c0 .0087.004.0129.0045.0212h.8108l1.0218-.9a1.74 1.74 0 0 0 .5175-1.1956l-.0135-.4274c-.0124-.3956-.2657-.5056-.5629-.2437zm.0483-2.5684-1.3135 1.1024a1.7557 1.7557 0 0 0 -.55 1.1829v.4273c.0006.396.2492.5117.5525.2571l1.3139-1.1026a1.7562 1.7562 0 0 0 .55-1.1829v-.4273c-.001-.396-.25-.5116-.5529-.2571zm-1.2637.4013 1.2743-1.1226a1.7507 1.7507 0 0 0 .4984-1.017c-.5792.0284-1.0534.07-1.6657.1269l-.1658.146a1.74 1.74 0 0 0 -.5175 1.1957l.0135.4273c.0124.3958.2657.5055.5628.2437zm-1.9451-.4743-.0127.1056.4.3361c.3033.2546.5519.139.5525-.257v-.4273a1.7549 1.7549 0 0 0 -.3181-.9161 1.4949 1.4949 0 0 0 -.6217 1.1587zm.9023 2.7859.0135-.4273a1.74 1.74 0 0 0 -.5176-1.1957l-.4865-.4287-.2086 1.7351.6364.5607c.2971.2614.5504.1517.5628-.2441zm-1.274.3052-.0836.6947a3.2468 3.2468 0 0 1 -.2219.9183l.9329.7831a6.4124 6.4124 0 0 1 .67-.0646.58.58 0 0 0 .0148-.0817v-.4273a1.7561 1.7561 0 0 0 -.55-1.1829zm-.0239 2.5282-.48-.4232a.56.56 0 0 0 -.0533-.0322c-.0194.027-.033.0568-.0538.0831a2.6493 2.6493 0 0 1 -.4631.4232l-.0062.197c-.0011.0376.01.0806.0129.12a6.352 6.352 0 0 1 1.0435-.3679zm-2.4466 1.2356v.0019a6.4129 6.4129 0 0 1 .9043-.6161 1.4733 1.4733 0 0 0 .046-.2429 4.1128 4.1128 0 0 0 -.9503.8571zm19.2952-.0075a4.24 4.24 0 0 0 -.9667-.8666 1.5327 1.5327 0 0 0 .0425.24 6.4069 6.4069 0 0 1 .9242.6266zm-1.8521-1.6c-.0147-.0185-.0239-.04-.0379-.0585a.5707.5707 0 0 0 -.07.04l-.4674.3924a6.3448 6.3448 0 0 1 1.0119.3545c.0012-.02.0085-.0429.0085-.0625v-.2565a2.5863 2.5863 0 0 1 -.4451-.4094zm-1.9478-.2881.0135.4274c0 .0141.0062.0211.0073.0345a6.4128 6.4128 0 0 1 .7147.069l.9027-.7953a3.2579 3.2579 0 0 1 -.2182-.9093l-.0889-.7388-.8135.7169a1.7408 1.7408 0 0 0 -.5176 1.1956zm.529-1.9168.7282-.6112-.2043-1.698-.5264.4419a1.7562 1.7562 0 0 0 -.55 1.1829l.0006.4273c0 .3962.2486.5119.5515.2573zm.1057-2.5293.3539-.3119-.0242-.2013a1.4266 1.4266 0 0 0 -.6232-1.0633 1.7328 1.7328 0 0 0 -.2826.9056l.0135.4274c.0122.3958.2655.5055.5626.2437zm-1.7605-2.0624a11.8162 11.8162 0 0 0 -1.6991-.1467 1.7643 1.7643 0 0 0 .53 1.035l1.3135 1.1026c.3032.2546.5518.139.5524-.257l.0006-.4273a1.7566 1.7566 0 0 0 -.55-1.183zm.0965 4.5788c.2971.2618.55.1521.5629-.2437l.0134-.4273a1.74 1.74 0 0 0 -.5176-1.1957l-1.2741-1.1226c-.2971-.2618-.55-.1522-.5629.2436l-.0138.4274a1.7409 1.7409 0 0 0 .5176 1.1957zm-1.2628-.4015c-.3033-.2545-.5519-.1389-.5524.2571l-.0006.4273a1.7566 1.7566 0 0 0 .55 1.183l1.0874.9126h.7664a.5629.5629 0 0 0 .0122-.0672l.0006-.4273a1.7562 1.7562 0 0 0 -.55-1.1829zm.0474 2.5684c-.2873-.2531-.5287-.1526-.5561.2116h.7963zm-1.5575.0326-.2132.179h.7516c-.036-.3222-.2594-.4131-.5384-.1788zm-.0482-2.5879-1.2742 1.1227a1.74 1.74 0 0 0 -.5175 1.1956l.0134.4274c0 .0087.004.0129.0045.0212h.8109l1.0217-.9a1.7408 1.7408 0 0 0 .5176-1.1956l-.0135-.4274c-.0125-.3958-.2658-.5058-.5629-.2439zm.0482-2.5684-1.3135 1.1026a1.7562 1.7562 0 0 0 -.55 1.1829l.0006.4273c0 .396.2491.5117.5525.2571l1.3135-1.1026a1.7562 1.7562 0 0 0 .55-1.1829l-.0006-.4273c-.0005-.396-.2491-.5116-.5525-.2571zm-1.2636.4015 1.2744-1.1226a1.7487 1.7487 0 0 0 .5029-1.0583c-.438-.0069-.9261-.0085-1.47-.0079l-.3657.3221a1.74 1.74 0 0 0 -.5175 1.1957l.0134.4273c.0121.3958.2654.5055.5625.2437zm12.2244 11.575h-1v-.2413a6.395 6.395 0 0 0 -3.2829-5.5871c-.1594-.0891-.3239-.17-.4912-.245a6.4322 6.4322 0 0 0 -1.649-.4856 6.4128 6.4128 0 0 0 -.7147-.069c-.0877-.0036-.1737-.0133-.2622-.0133h-11.2c-.0967 0-.1907.01-.2863.0145a6.398 6.398 0 0 0 -2.3648.5655c-.17.0776-.3368.1609-.4985.2526a6.3737 6.3737 0 0 0 -3.2504 5.5675v16.2a6.3929 6.3929 0 0 0 3.2529 5.5689c.1606.0909.326.1734.4948.25a6.3968 6.3968 0 0 0 1.6847.5 6.4278 6.4278 0 0 0 .6834.0665c.095.0041.1882.0143.2842.0143h11.2c.0877 0 .1729-.01.26-.0131a6.4374 6.4374 0 0 0 .7283-.0708 6.4316 6.4316 0 0 0 1.6394-.4846c.166-.075.3293-.1546.4874-.2429a6.4172 6.4172 0 0 0 3.2849-5.5882v-10.9589h1zm-2 15.9589a5.4377 5.4377 0 0 1 -5.4 5.4h-11.2a5.413 5.413 0 0 1 -.7028-.0511 5.4071 5.4071 0 0 1 -4.6972-5.3489v-16.2a5.4417 5.4417 0 0 1 5.4-5.4h11.2a5.4168 5.4168 0 0 1 5.4 5.4v.2411 5z"/></g></svg>