<svg height="54" viewBox="0 0 28 54" width="28" xmlns="http://www.w3.org/2000/svg"><path d="m0 0h28v54h-28z" fill="none"/><path d="m7.71 45.2739h10.9972c-.04.7777-.0824 1.5387-.1245 2.2368h-10.7485c-.042-.6979-.0842-1.4588-.1242-2.2368zm.196 3.3609c.0367.5376.0723.9988.1056 1.3508h10.3934c.0334-.3521.0691-.8134.1057-1.3508.0084-.1228.0168-.244.0252-.3741h-10.655c.0084.1302.0167.2513.025.3741zm19.4047-21.4974v.9441a.9884.9884 0 0 1 .6893.9348v4.5067a.9883.9883 0 0 1 -.6893.9348v.7175l-.5042.0277a.6822.6822 0 0 0 -.5943.3391 4 4 0 0 0 -.1866.4308v-.0107a8.3309 8.3309 0 0 1 -1.5377 3.0233 6.3143 6.3143 0 0 1 -1.0872 1.4521 1.2225 1.2225 0 0 0 -.3184.6448c-.0188.1224-.038.26-.0563.3945-.049.3624-.09.7087-.09.7087a1.6336 1.6336 0 0 1 -1.5 1.5973h-.207l-.1269 4.2187c-.1138.2094-.1459.4984-.8967.4984h-.6716c.0946-1.3072.1863-2.99.2689-4.7171q.0162-.343.0321-.6866.0244-.529.0475-1.0536c.0047-.1089.01-.2172.0143-.3255-.3216.0714-.6582.133-1.0141.1831-.002.0471-.0042.0949-.0064.1424-.0044.1021-.0088.2018-.0136.3059q-.0166.367-.0345.7477c-.0107.2265-.0217.456-.033.6866q-.0089.1823-.0182.3652h-11.1429q-.0091-.183-.0181-.3652c-.0112-.23-.0222-.46-.0329-.6866-.012-.2533-.0235-.5031-.0345-.7477-.0048-.1044-.0091-.2036-.0138-.3059l-.0052-.12q-.5263-.075-1.0143-.189.0067.1543.0136.3093.0228.5241.0473 1.0536.0158.344.0321.6866c.0823 1.7284.1738 3.41.2681 4.7171h-.46c-.751 0-.783-.289-.8967-.4984l-.127-4.2187h-.2613a1.6336 1.6336 0 0 1 -1.4995-1.5973s-.1482-1.2461-.2166-1.484a5.4729 5.4729 0 0 0 -.9062-1.0047c-.1343-.1283-.2333-.22-.2333-.22l.04.0192a8.2187 8.2187 0 0 1 -2.3156-5.9342v-13.9266a8.24 8.24 0 0 1 2.6593-6.3065 4.5727 4.5727 0 0 0 .66-.8195c.0684-.2379.2166-1.484.2166-1.484a1.6375 1.6375 0 0 1 1.44-1.5829c.0156-2.3591.0933-5.3841.4121-5.4427h15.6084c.3185.0585.3822 3.08.3876 5.4388a1.6364 1.6364 0 0 1 1.456 1.5868s.0411.3463.09.7086c.0184.135.0376.2722.0563.3945a1.2237 1.2237 0 0 0 .3185.6449 11.5011 11.5011 0 0 1 1.084 1.2664l-.02-.0122a7.9 7.9 0 0 1 1.6587 3.0715 3.8117 3.8117 0 0 0 .1842.4244.6822.6822 0 0 0 .5943.3391l.5042.0277v1.6695a.9884.9884 0 0 1 .6898.9345v4.0564a.9884.9884 0 0 1 -.6893.9348zm-21.9707 14.8926h-.0382a.5279.5279 0 1 0 0 1.0558h.07zm19.523-22.4529c0-4.2817-3.057-7.0483-7.7881-7.0483h-7.784c-4.8019 0-7.7849 2.7007-7.7849 7.0483v13.9546c0 4.3972 3.0036 7.0224 8.0347 7.0224.155 0 .3128-.0025.4722-.0074l.0281-.0009h.0279l5.7.0341a11.8017 11.8017 0 0 0 5.7055-1.0225 6.9574 6.9574 0 0 0 3.3893-6.0259zm-3.48-9.4335c-.001.3856-.0031.7137-.0054.9685a.5256.5256 0 0 0 .0054-.9685zm-16.6948.4824a.5237.5237 0 0 0 .2851.46c-.0011-.246-.0016-.5564-.0011-.919a.5236.5236 0 0 0 -.2833.4585zm17.097 31.9314a.5276.5276 0 0 0 -.5041-.5226l-.0315 1.05h.0057a.5305.5305 0 0 0 .5299-.5274z" fill="#f5f5f7"/></svg>