<svg height="54" viewBox="0 0 80 54" width="80" xmlns="http://www.w3.org/2000/svg"><path d="m0 0h80v54h-80z" fill="none"/><path d="m79.7552 48.55v-.55h-4.5v-24.75a1.7711 1.7711 0 0 0 -1.75-1.75h-37.8a1.6683 1.6683 0 0 0 -1.7 1.75v24.75h-4.5v.55a.9866.9866 0 0 0 .9 1h2.1l.5.45h3l.5-.45h36.25l.45.45h3l.55-.45h1.95a1.0358 1.0358 0 0 0 1.05-.9zm-6.05-.55h-38.2v-24.5484c0-.3.1-.4516.5-.4516h16a1.0754 1.0754 0 0 0 1 1h3a.9448.9448 0 0 0 1-1l16.2-.0484c.4 0 .5.1.5.5zm-44.5865 2h-16.3739s-5.1-.05-7.7-.25a10.7239 10.7239 0 0 1 -4.6-1.4c-.2-.146-.2-.25-.2-.35h5v-24.4967a1.5006 1.5006 0 0 1 1.5033-1.5006l26.5071-.0027a3.1067 3.1067 0 0 0 -.25 1.25v.75h-25.75l-.01 24h21.26v.55a2.0417 2.0417 0 0 0 .6135 1.45z" fill="#1d1d1f"/></svg>