<svg xmlns="http://www.w3.org/2000/svg" viewBox="0 0 63 54"><defs><style>.a{fill:none;}.b{fill:#1d1d1f;}</style></defs><title>keyboard.fill_elevated_large_</title><rect class="a" width="63" height="54"/><circle class="b" cx="12.67" cy="48.62" r="1"/><path class="b" d="M62.17,49.37H14.67a.25.25,0,0,0-.25.25V50a9.42,9.42,0,0,0-2.79.56c-.53.13-.91,0-1.1-.23a1.12,1.12,0,0,1,.08-1.2,18,18,0,0,0,1.31-2.4l.39.14h0a.24.24,0,0,0,.29-.2l5-13.82L25.25,46a.25.25,0,0,0,.34.09l.87-.5a.25.25,0,0,0,.09-.34L2.3,3.26A.26.26,0,0,0,2,3.16l-.87.5h0L1,3.73H1L.7,3.9a.24.24,0,0,0-.09.34L16.47,31.71l-5.25,14.5a.26.26,0,0,0,.15.32l.31.11A17.22,17.22,0,0,1,10.4,49a1.38,1.38,0,0,0-.08,1.49,1,1,0,0,0,.86.39,2.27,2.27,0,0,0,.53-.07,9.27,9.27,0,0,1,2.71-.55v.37a.25.25,0,0,0,.25.25h47.5a.25.25,0,0,0,.25-.25v-1A.25.25,0,0,0,62.17,49.37Z"/></svg>