<svg enable-background="new 0 0 66 54" height="54" viewBox="0 0 66 54" width="66" xmlns="http://www.w3.org/2000/svg"><path d="m0 0h66v54h-66z" fill="none"/><path d="m43.7 16h-7.7v-7c0-1.1046.8955-2 2-2h7.499c.2761 0 .5.2238.5.5v9.4409c-.5949-.5802-1.4048-.9409-2.299-.9409zm12.8-9h-9c-.2761 0-.5.2238-.5.5v11.8023 28.3954 1.8023c0 .2761.2239.5.5.5h9c.2761 0 .5-.2239.5-.5v-42c0-.2762-.2239-.5-.5-.5zm7.5 0h-3-2.5c-.2761 0-.5.2238-.5.5v42c0 .2761.2239.5.5.5h2.5 3c1.1045 0 2-.8954 2-2v-39c0-1.1046-.8955-2-2-2zm-59 41h-2c-.5522 0-1-.4477-1-1v-42c0-.5523.4478-1 1-1h2 26c.5522 0 1 .4477 1 1v11h2v-11c0-1.6569-1.3431-3-3-3h-26-2c-1.6569 0-3 1.3431-3 3v42c0 1.6569 1.3431 3 3 3h2 17.9415c-.5135-.5267-.8394-1.2263-.911-2zm40.9695-29.0001c.0133.1.0305.1988.0305.3024v28.3954c0 1.2715-1.0298 2.3023-2.3 2.3023h-16.594-.9861-.8199c-.0653 0-.1267-.0139-.1907-.0192-1.0782-.0901-1.938-.9167-2.0789-1.9808-.0132-.0999-.0304-.1987-.0304-.3023v-.1977-.5-27.6977c0-1.2715 1.0298-2.3023 2.3-2.3023h5.7.5.5 2 .5.5 1 7.7c1.1667 0 2.1203.8728 2.2695 1.9999zm-1.9695.7437c0-.4107-.3271-.7436-.7307-.7436h-17.5386c-.4036 0-.7307.3329-.7307.7436v27.5128c0 .4107.3271.7436.7307.7436h17.5386c.4036 0 .7307-.3329.7307-.7436z" fill="#1d1d1f"/></svg>