<svg version="1.1" xmlns="http://www.w3.org/2000/svg" xmlns:xlink="http://www.w3.org/1999/xlink" x="0px" y="0px" width="74px" height="74px" viewBox="0 0 74 74" style="enable-background:new 0 0 74 74;" xml:space="preserve">
	<path style="fill:#888888;" d="M37,58.5c-11.85,0-21.5-9.65-21.5-21.5S25.15,15.5,37,15.5S58.5,25.15,58.5,37S48.85,58.5,37,58.5zM37,17.5c-10.75,0-19.5,8.75-19.5,19.5S26.25,56.5,37,56.5S56.5,47.75,56.5,37S47.75,17.5,37,17.5z"/>
	<path style="fill:#888888;" d="M36.05,48.6v-1.83c-3.69-0.27-6.12-2.39-6.14-5.44h2.34c0.15,1.83,1.54,3.05,3.8,3.32v-7.11l-1.09-0.3c-2.93-0.77-4.57-2.56-4.57-5.1c0-2.99,2.17-5.03,5.66-5.37v-1.91h1.83v1.9c3.42,0.29,5.66,2.41,5.76,5.36h-2.32c-0.05-1.7-1.41-2.99-3.43-3.24v6.69l1.16,0.29c3.34,0.89,4.94,2.54,4.94,5.3c0,3.24-2.26,5.29-6.1,5.61v1.85H36.05z M36.05,35.16v-6.29c-1.91,0.11-3.31,1.41-3.31,3.13C32.74,33.63,33.89,34.71,36.05,35.16z M37.88,37.91v6.78c2.38-0.12,3.73-1.35,3.73-3.35C41.61,39.54,40.46,38.46,37.88,37.91z"/>
</svg>
