<svg height="54" viewBox="0 0 40 54" width="40" xmlns="http://www.w3.org/2000/svg"><path d="m0 0h40v54h-40z" fill="none"/><path d="m24.3984 5.0964a3.6481 3.6481 0 0 0 -1.6054-1.6055 4.1693 4.1693 0 0 0 -1.1038-.3726 7.4035 7.4035 0 0 0 -1.1934-.1183c-.3676-.0114-.8547 0-1.2416 0h-12.7237c-.165 0-.3276 0-.489.0005a9.84 9.84 0 0 0 -1.8315.1178 4.1756 4.1756 0 0 0 -1.104.3726 3.6522 3.6522 0 0 0 -1.605 1.6055 4.1784 4.1784 0 0 0 -.3726 1.1036 6.8063 6.8063 0 0 0 -.11.9813c-.0156.3252-.0176.6777-.0181 1.0128v.4409 35.716q0 .2233 0 .4409c0 .3351.0025.6876.0181 1.0129a6.81 6.81 0 0 0 .11.9813 4.18 4.18 0 0 0 .3726 1.1039 3.6517 3.6517 0 0 0 1.6054 1.6056 4.1754 4.1754 0 0 0 1.104.3725 7.399 7.399 0 0 0 1.1934.1185c.3674.0114.8547.01 1.2417.01 4.721 0 6.3456.0034 11.0665.0034-.1183-.1-.22-.2385-.37-.3623a4.827 4.827 0 0 1 -.5341-.6645 3.4885 3.4885 0 0 1 -.4467-.9109 7.3357 7.3357 0 0 1 -.2427-1.0155 6.1271 6.1271 0 0 1 -.1011-.9013c-.0147-.2989-.0166-.6224-.0171-.93 0-.1347 0-.2706 0-.4086v-33.6137c0-.138 0-.2738 0-.4084 0-.3078.0024-.6314.0171-.93a6.214 6.214 0 0 1 .1011-.9014 3.8341 3.8341 0 0 1 .3427-1.0154 3.357 3.357 0 0 1 1.4768-1.4769 3.8373 3.8373 0 0 1 1.0157-.3427 8.9526 8.9526 0 0 1 1.6682-.1175c.1611-.0009.3241-.0009.4897-.0009h3.7535m-13.5301 3.6808c0 .2639 0 .4476-.0005.6012-.0005.151-.002.2761-.0059.391a3.75 3.75 0 0 1 -.0757.67 2.5459 2.5459 0 0 1 -.2375.6612 2.4166 2.4166 0 0 1 -1.0108 1.0108 2.56 2.56 0 0 1 -.6611.2376 3.76 3.76 0 0 1 -.67.0756c-.115.004-.24.0054-.3911.0058-.1536.0007-.3374.0006-.6013.0006h-1.3618c-.2639 0-.4477 0-.6013-.0006-.1511 0-.2761-.0018-.3911-.0058a3.76 3.76 0 0 1 -.67-.0756 2.56 2.56 0 0 1 -.6611-.2376 2.4166 2.4166 0 0 1 -1.0108-1.0108 2.5459 2.5459 0 0 1 -.2375-.6612 3.75 3.75 0 0 1 -.0757-.67c-.0039-.1149-.0054-.24-.0059-.391-.0005-.1537-.0005-.3373-.0005-.6012v-1.3616c0-.264 0-.4476.0005-.6012 0-.1512.002-.2763.0059-.3911a3.7506 3.7506 0 0 1 .0757-.67 2.5583 2.5583 0 0 1 .2375-.6612 2.4181 2.4181 0 0 1 1.0104-1.0112 2.56 2.56 0 0 1 .6611-.2376 3.76 3.76 0 0 1 .67-.0756c.115-.004.24-.0053.3911-.0059h.6013 1.3618.6013c.1511.0006.2761.0019.3909.0059a3.76 3.76 0 0 1 .6706.0756 2.56 2.56 0 0 1 .6611.2376 2.4181 2.4181 0 0 1 1.0108 1.0108 2.5472 2.5472 0 0 1 .2375.6612 3.7506 3.7506 0 0 1 .0757.67c.0039.1149.0054.24.0059.3911.0005.1537.0005.3373.0005.6012zm24.665 14.6272v21.3839a1.4434 1.4434 0 0 1 -1.5454 1.3081h-12.9092a1.4434 1.4434 0 0 1 -1.5454-1.3081v-21.3788a1.4487 1.4487 0 0 1 1.551-1.3131h12.9038a1.4431 1.4431 0 0 1 1.5452 1.308zm3-12.4866c-.0005-.3078-.0022-.6314-.0166-.93a6.2562 6.2562 0 0 0 -.1014-.9014 3.8341 3.8341 0 0 0 -.3427-1.0154 3.36 3.36 0 0 0 -1.4768-1.4768 3.8315 3.8315 0 0 0 -1.0157-.3428 6.7953 6.7953 0 0 0 -1.0976-.109c-.3382-.01-.7864-.0092-1.1424-.0092h-11.72c-.1656 0-.3286 0-.49.0008a8.9441 8.9441 0 0 0 -1.6682.1174 3.8339 3.8339 0 0 0 -1.0157.3428 3.3561 3.3561 0 0 0 -1.4769 1.4766 3.8341 3.8341 0 0 0 -.3427 1.0156 6.214 6.214 0 0 0 -.1011.9014c-.0147.2988.0085.6224.008.93v.4085 32.5768.4086c0 .3078-.0227.6313-.008.93a6.2126 6.2126 0 0 0 .1011.9013 3.8336 3.8336 0 0 0 .3427 1.0155 3.357 3.357 0 0 0 1.4768 1.4769 3.8445 3.8445 0 0 0 1.0157.3427 6.7843 6.7843 0 0 0 1.0979.1089c.3379.0105.7861.0091 1.1421.0091h11.72.49a8.9579 8.9579 0 0 0 1.6679-.1175 3.8421 3.8421 0 0 0 1.0157-.3427 3.3611 3.3611 0 0 0 1.4768-1.4769 3.8336 3.8336 0 0 0 .3427-1.0155 6.2548 6.2548 0 0 0 .1014-.9013c.0144-.2989.0161-.6224.0166-.93 0-.1347 0-.2706 0-.4086v-32.5772c.0004-.1381.0004-.2739.0004-.4086zm-20.3357-.1166c.0007-.1506.0019-.2753.0058-.39a3.7478 3.7478 0 0 1 .0752-.6679 2.56 2.56 0 0 1 .2371-.6588 2.4034 2.4034 0 0 1 1.0066-1.0065 2.5507 2.5507 0 0 1 .6587-.2368 3.748 3.748 0 0 1 .668-.0753c.1142-.0039.2388-.0052.3894-.0058.1531-.0006.3362 0 .5991 0h1.3916.4553c.1465 0 .3084 0 .4554.0037a3.64 3.64 0 0 1 .9006.1156 2.4163 2.4163 0 0 1 1.5481 1.2793 2.7681 2.7681 0 0 1 .2561.9566c.0154.1581.021.3164.0232.5.0022.1678.0017.4295.0017.7851v1.3927c0 .2628 0 .4458-.0005.5988-.0007.1505-.002.2752-.0059.3895a3.7471 3.7471 0 0 1 -.0754.6679 2.547 2.547 0 0 1 -.2366.6588 2.4089 2.4089 0 0 1 -1.0071 1.007 2.5521 2.5521 0 0 1 -.6586.2367 3.7489 3.7489 0 0 1 -.668.0752c-.1143.004-.239.0054-.3894.0059-.1533.0006-.3362 0-.5991 0h-1.3914c-.3557 0-.6174 0-.7851-.0017-.1836-.0023-.3418-.0079-.5-.0232a2.7589 2.7589 0 0 1 -.9566-.2562 2.4111 2.4111 0 0 1 -.6533-.4644 2.4372 2.4372 0 0 1 -.626-1.0837 3.647 3.647 0 0 1 -.1157-.9006c-.0037-.1469-.0037-.3088-.0037-.4554 0-.1516 0-.3029 0-.455v-1.3927c0-.2629-.0002-.4459.0003-.5988zm18.3357 33.9871a2.4355 2.4355 0 0 1 -2.5454 2.3081h-12.9092a2.4355 2.4355 0 0 1 -2.5454-2.3081v-21.3788a2.4408 2.4408 0 0 1 2.551-2.3131h12.9038a2.4354 2.4354 0 0 1 2.5452 2.308z" fill="#1d1d1f"/></svg>